<mxfile host="app.diagrams.net" agent="Mozilla/5.0 (Macintosh; Intel Mac OS X 10_15_7) AppleWebKit/537.36 (KHTML, like Gecko) Chrome/130.0.0.0 Safari/537.36" version="24.8.6">
  <diagram name="Page-1" id="ulqyc_V7g9ZrCC8gAtyB">
    <mxGraphModel grid="1" page="1" gridSize="10" guides="1" tooltips="1" connect="1" arrows="1" fold="1" pageScale="1" pageWidth="850" pageHeight="1100" math="0" shadow="0">
      <root>
        <mxCell id="0" />
        <mxCell id="1" parent="0" />
        <mxCell id="bEPEMCtb5UEX3MHNsZFe-5" value="" style="edgeStyle=orthogonalEdgeStyle;rounded=0;orthogonalLoop=1;jettySize=auto;html=1;" edge="1" parent="1" source="bEPEMCtb5UEX3MHNsZFe-1" target="bEPEMCtb5UEX3MHNsZFe-4">
          <mxGeometry relative="1" as="geometry" />
        </mxCell>
        <mxCell id="bEPEMCtb5UEX3MHNsZFe-1" value="BEGIN" style="rounded=1;whiteSpace=wrap;html=1;" vertex="1" parent="1">
          <mxGeometry x="425" y="30" width="120" height="40" as="geometry" />
        </mxCell>
        <mxCell id="bEPEMCtb5UEX3MHNsZFe-7" value="" style="edgeStyle=orthogonalEdgeStyle;rounded=0;orthogonalLoop=1;jettySize=auto;html=1;" edge="1" parent="1" source="bEPEMCtb5UEX3MHNsZFe-4" target="bEPEMCtb5UEX3MHNsZFe-6">
          <mxGeometry relative="1" as="geometry" />
        </mxCell>
        <mxCell id="bEPEMCtb5UEX3MHNsZFe-4" value="Get mark" style="shape=parallelogram;perimeter=parallelogramPerimeter;whiteSpace=wrap;html=1;fixedSize=1;rounded=1;arcSize=0;" vertex="1" parent="1">
          <mxGeometry x="425" y="110" width="120" height="30" as="geometry" />
        </mxCell>
        <mxCell id="bEPEMCtb5UEX3MHNsZFe-9" value="" style="edgeStyle=orthogonalEdgeStyle;rounded=0;orthogonalLoop=1;jettySize=auto;html=1;exitX=0.5;exitY=1;exitDx=0;exitDy=0;" edge="1" parent="1" source="bEPEMCtb5UEX3MHNsZFe-6" target="bEPEMCtb5UEX3MHNsZFe-8">
          <mxGeometry relative="1" as="geometry" />
        </mxCell>
        <mxCell id="bEPEMCtb5UEX3MHNsZFe-51" value="OTHERWISE" style="edgeLabel;html=1;align=center;verticalAlign=middle;resizable=0;points=[];" connectable="0" vertex="1" parent="bEPEMCtb5UEX3MHNsZFe-9">
          <mxGeometry x="0.7978" y="3" relative="1" as="geometry">
            <mxPoint as="offset" />
          </mxGeometry>
        </mxCell>
        <mxCell id="bEPEMCtb5UEX3MHNsZFe-23" value="" style="edgeStyle=orthogonalEdgeStyle;rounded=0;orthogonalLoop=1;jettySize=auto;html=1;exitX=0.5;exitY=1;exitDx=0;exitDy=0;" edge="1" parent="1" source="bEPEMCtb5UEX3MHNsZFe-6" target="bEPEMCtb5UEX3MHNsZFe-22">
          <mxGeometry relative="1" as="geometry" />
        </mxCell>
        <mxCell id="bEPEMCtb5UEX3MHNsZFe-32" value="&amp;gt;= 85 and &amp;lt;=100" style="edgeLabel;html=1;align=center;verticalAlign=middle;resizable=0;points=[];" connectable="0" vertex="1" parent="bEPEMCtb5UEX3MHNsZFe-23">
          <mxGeometry x="0.8727" y="2" relative="1" as="geometry">
            <mxPoint as="offset" />
          </mxGeometry>
        </mxCell>
        <mxCell id="bEPEMCtb5UEX3MHNsZFe-27" value="" style="edgeStyle=orthogonalEdgeStyle;rounded=0;orthogonalLoop=1;jettySize=auto;html=1;" edge="1" parent="1" source="bEPEMCtb5UEX3MHNsZFe-6" target="bEPEMCtb5UEX3MHNsZFe-26">
          <mxGeometry relative="1" as="geometry" />
        </mxCell>
        <mxCell id="bEPEMCtb5UEX3MHNsZFe-50" value="&amp;gt;=64 and &amp;lt;=50" style="edgeLabel;html=1;align=center;verticalAlign=middle;resizable=0;points=[];" connectable="0" vertex="1" parent="bEPEMCtb5UEX3MHNsZFe-27">
          <mxGeometry x="0.636" y="-1" relative="1" as="geometry">
            <mxPoint as="offset" />
          </mxGeometry>
        </mxCell>
        <mxCell id="bEPEMCtb5UEX3MHNsZFe-29" value="" style="edgeStyle=orthogonalEdgeStyle;rounded=0;orthogonalLoop=1;jettySize=auto;html=1;" edge="1" parent="1" source="bEPEMCtb5UEX3MHNsZFe-6" target="bEPEMCtb5UEX3MHNsZFe-28">
          <mxGeometry relative="1" as="geometry" />
        </mxCell>
        <mxCell id="bEPEMCtb5UEX3MHNsZFe-34" value="&amp;gt;=74 and &amp;lt;=65" style="edgeLabel;html=1;align=center;verticalAlign=middle;resizable=0;points=[];" connectable="0" vertex="1" parent="bEPEMCtb5UEX3MHNsZFe-29">
          <mxGeometry x="0.6084" y="1" relative="1" as="geometry">
            <mxPoint as="offset" />
          </mxGeometry>
        </mxCell>
        <mxCell id="bEPEMCtb5UEX3MHNsZFe-31" value="" style="edgeStyle=orthogonalEdgeStyle;rounded=0;orthogonalLoop=1;jettySize=auto;html=1;exitX=0.5;exitY=1;exitDx=0;exitDy=0;" edge="1" parent="1" source="bEPEMCtb5UEX3MHNsZFe-6" target="bEPEMCtb5UEX3MHNsZFe-30">
          <mxGeometry relative="1" as="geometry" />
        </mxCell>
        <mxCell id="bEPEMCtb5UEX3MHNsZFe-33" value="&amp;gt;= 84 and &amp;lt;=75" style="edgeLabel;html=1;align=center;verticalAlign=middle;resizable=0;points=[];" connectable="0" vertex="1" parent="bEPEMCtb5UEX3MHNsZFe-31">
          <mxGeometry x="0.8046" y="-2" relative="1" as="geometry">
            <mxPoint as="offset" />
          </mxGeometry>
        </mxCell>
        <mxCell id="bEPEMCtb5UEX3MHNsZFe-6" value="Mark is" style="rhombus;whiteSpace=wrap;html=1;rounded=1;arcSize=0;" vertex="1" parent="1">
          <mxGeometry x="445" y="185" width="80" height="80" as="geometry" />
        </mxCell>
        <mxCell id="bEPEMCtb5UEX3MHNsZFe-49" style="edgeStyle=orthogonalEdgeStyle;rounded=0;orthogonalLoop=1;jettySize=auto;html=1;exitX=0.5;exitY=1;exitDx=0;exitDy=0;entryX=0.5;entryY=0;entryDx=0;entryDy=0;" edge="1" parent="1" source="bEPEMCtb5UEX3MHNsZFe-8" target="bEPEMCtb5UEX3MHNsZFe-39">
          <mxGeometry relative="1" as="geometry" />
        </mxCell>
        <mxCell id="bEPEMCtb5UEX3MHNsZFe-8" value="Print Fail" style="whiteSpace=wrap;html=1;rounded=1;arcSize=0;" vertex="1" parent="1">
          <mxGeometry x="680" y="380" width="120" height="60" as="geometry" />
        </mxCell>
        <mxCell id="bEPEMCtb5UEX3MHNsZFe-41" style="edgeStyle=orthogonalEdgeStyle;rounded=0;orthogonalLoop=1;jettySize=auto;html=1;exitX=0.5;exitY=1;exitDx=0;exitDy=0;entryX=0.5;entryY=0;entryDx=0;entryDy=0;" edge="1" parent="1" source="bEPEMCtb5UEX3MHNsZFe-22" target="bEPEMCtb5UEX3MHNsZFe-39">
          <mxGeometry relative="1" as="geometry" />
        </mxCell>
        <mxCell id="bEPEMCtb5UEX3MHNsZFe-22" value="Print High Distinction" style="whiteSpace=wrap;html=1;rounded=1;arcSize=0;" vertex="1" parent="1">
          <mxGeometry x="50" y="380" width="120" height="60" as="geometry" />
        </mxCell>
        <mxCell id="bEPEMCtb5UEX3MHNsZFe-46" style="edgeStyle=orthogonalEdgeStyle;rounded=0;orthogonalLoop=1;jettySize=auto;html=1;exitX=0.5;exitY=1;exitDx=0;exitDy=0;entryX=0.5;entryY=0;entryDx=0;entryDy=0;" edge="1" parent="1" source="bEPEMCtb5UEX3MHNsZFe-26" target="bEPEMCtb5UEX3MHNsZFe-39">
          <mxGeometry relative="1" as="geometry" />
        </mxCell>
        <mxCell id="bEPEMCtb5UEX3MHNsZFe-26" value="Print Pass" style="whiteSpace=wrap;html=1;rounded=1;arcSize=0;" vertex="1" parent="1">
          <mxGeometry x="510" y="380" width="120" height="60" as="geometry" />
        </mxCell>
        <mxCell id="bEPEMCtb5UEX3MHNsZFe-45" style="edgeStyle=orthogonalEdgeStyle;rounded=0;orthogonalLoop=1;jettySize=auto;html=1;exitX=0.5;exitY=1;exitDx=0;exitDy=0;entryX=0.5;entryY=0;entryDx=0;entryDy=0;" edge="1" parent="1" source="bEPEMCtb5UEX3MHNsZFe-28" target="bEPEMCtb5UEX3MHNsZFe-39">
          <mxGeometry relative="1" as="geometry" />
        </mxCell>
        <mxCell id="bEPEMCtb5UEX3MHNsZFe-28" value="Print Credit" style="whiteSpace=wrap;html=1;rounded=1;arcSize=0;" vertex="1" parent="1">
          <mxGeometry x="350" y="380" width="120" height="60" as="geometry" />
        </mxCell>
        <mxCell id="bEPEMCtb5UEX3MHNsZFe-42" style="edgeStyle=orthogonalEdgeStyle;rounded=0;orthogonalLoop=1;jettySize=auto;html=1;exitX=0.5;exitY=1;exitDx=0;exitDy=0;entryX=0.5;entryY=0;entryDx=0;entryDy=0;" edge="1" parent="1" source="bEPEMCtb5UEX3MHNsZFe-30" target="bEPEMCtb5UEX3MHNsZFe-39">
          <mxGeometry relative="1" as="geometry" />
        </mxCell>
        <mxCell id="bEPEMCtb5UEX3MHNsZFe-30" value="Print Distinction" style="whiteSpace=wrap;html=1;rounded=1;arcSize=0;" vertex="1" parent="1">
          <mxGeometry x="200" y="380" width="120" height="60" as="geometry" />
        </mxCell>
        <mxCell id="bEPEMCtb5UEX3MHNsZFe-39" value="END" style="rounded=1;whiteSpace=wrap;html=1;" vertex="1" parent="1">
          <mxGeometry x="425" y="540" width="120" height="40" as="geometry" />
        </mxCell>
      </root>
    </mxGraphModel>
  </diagram>
</mxfile>
